<?xml version="1.0" encoding="UTF-8" standalone="no"?>
<!DOCTYPE svg PUBLIC "-//W3C//DTD SVG 1.1//EN"
 "http://www.w3.org/Graphics/SVG/1.1/DTD/svg11.dtd">
<!-- Generated by graphviz version 2.44.1 (20200629.0846)
 -->
<!-- Pages: 1 -->
<svg width="559pt" height="326pt"
 viewBox="0.00 0.00 558.64 326.00" xmlns="http://www.w3.org/2000/svg" xmlns:xlink="http://www.w3.org/1999/xlink">
<g id="graph0" class="graph" transform="scale(1 1) rotate(0) translate(4 322)">
<polygon fill="white" stroke="transparent" points="-4,4 -4,-322 554.64,-322 554.64,4 -4,4"/>
<!-- clementi rd -->
<g id="node1" class="node">
<title>clementi rd</title>
<ellipse fill="none" stroke="black" cx="97.35" cy="-18" rx="51.19" ry="18"/>
<text text-anchor="middle" x="97.35" y="-14.3" font-family="Times,serif" font-size="14.00">clementi rd</text>
</g>
<!-- toh tuck -->
<g id="node2" class="node">
<title>toh tuck</title>
<ellipse fill="none" stroke="black" cx="360.35" cy="-105" rx="39.79" ry="18"/>
<text text-anchor="middle" x="360.35" y="-101.3" font-family="Times,serif" font-size="14.00">toh tuck</text>
</g>
<!-- teban -->
<g id="node3" class="node">
<title>teban</title>
<ellipse fill="none" stroke="red" cx="232.35" cy="-213" rx="29.8" ry="18"/>
<text text-anchor="middle" x="232.35" y="-209.3" font-family="Times,serif" font-size="14.00">teban</text>
</g>
<!-- pie jeast -->
<g id="node9" class="node">
<title>pie jeast</title>
<ellipse fill="none" stroke="red" cx="262.35" cy="-105" rx="40.09" ry="18"/>
<text text-anchor="middle" x="262.35" y="-101.3" font-family="Times,serif" font-size="14.00">pie jeast</text>
</g>
<!-- teban&#45;&#45;pie jeast -->
<g id="edge3" class="edge">
<title>teban&#45;&#45;pie jeast</title>
<path fill="none" stroke="red" d="M237.17,-194.97C242.76,-175.19 251.94,-142.75 257.54,-122.99"/>
<text text-anchor="middle" x="255.85" y="-155.3" font-family="Times,serif" font-size="14.00">5</text>
</g>
<!-- clementi -->
<g id="node12" class="node">
<title>clementi</title>
<ellipse fill="none" stroke="black" cx="162.35" cy="-105" rx="41.69" ry="18"/>
<text text-anchor="middle" x="162.35" y="-101.3" font-family="Times,serif" font-size="14.00">clementi</text>
</g>
<!-- teban&#45;&#45;clementi -->
<g id="edge6" class="edge">
<title>teban&#45;&#45;clementi</title>
<path fill="none" stroke="black" d="M221.71,-195.9C208.63,-176.09 186.54,-142.64 173.31,-122.6"/>
<text text-anchor="middle" x="211.85" y="-155.3" font-family="Times,serif" font-size="14.00">2</text>
</g>
<!-- alexandra -->
<g id="node4" class="node">
<title>alexandra</title>
<ellipse fill="none" stroke="black" cx="51.35" cy="-213" rx="44.69" ry="18"/>
<text text-anchor="middle" x="51.35" y="-209.3" font-family="Times,serif" font-size="14.00">alexandra</text>
</g>
<!-- buona vista -->
<g id="node8" class="node">
<title>buona vista</title>
<ellipse fill="none" stroke="black" cx="51.35" cy="-105" rx="51.19" ry="18"/>
<text text-anchor="middle" x="51.35" y="-101.3" font-family="Times,serif" font-size="14.00">buona vista</text>
</g>
<!-- alexandra&#45;&#45;buona vista -->
<g id="edge9" class="edge">
<title>alexandra&#45;&#45;buona vista</title>
<path fill="none" stroke="black" d="M51.35,-194.97C51.35,-175.31 51.35,-143.13 51.35,-123.34"/>
<text text-anchor="middle" x="54.85" y="-155.3" font-family="Times,serif" font-size="14.00">4</text>
</g>
<!-- pie jwest -->
<g id="node5" class="node">
<title>pie jwest</title>
<ellipse fill="none" stroke="black" cx="387.35" cy="-18" rx="42.49" ry="18"/>
<text text-anchor="middle" x="387.35" y="-14.3" font-family="Times,serif" font-size="14.00">pie jwest</text>
</g>
<!-- bt timah -->
<g id="node6" class="node">
<title>bt timah</title>
<ellipse fill="none" stroke="black" cx="510.35" cy="-213" rx="40.09" ry="18"/>
<text text-anchor="middle" x="510.35" y="-209.3" font-family="Times,serif" font-size="14.00">bt timah</text>
</g>
<!-- bt timah&#45;&#45;toh tuck -->
<g id="edge12" class="edge">
<title>bt timah&#45;&#45;toh tuck</title>
<path fill="none" stroke="black" d="M509.67,-194.89C508.1,-178.74 503.2,-154.96 488.35,-141 463.68,-117.82 446.95,-132.09 414.35,-123 406.96,-120.94 399.06,-118.56 391.65,-116.24"/>
<text text-anchor="middle" x="510.85" y="-155.3" font-family="Times,serif" font-size="14.00">4</text>
</g>
<!-- jln ahmad ibrahim -->
<g id="node7" class="node">
<title>jln ahmad ibrahim</title>
<ellipse fill="none" stroke="black" cx="410.35" cy="-159" rx="76.89" ry="18"/>
<text text-anchor="middle" x="410.35" y="-155.3" font-family="Times,serif" font-size="14.00">jln ahmad ibrahim</text>
</g>
<!-- jln ahmad ibrahim&#45;&#45;pie jwest -->
<g id="edge4" class="edge">
<title>jln ahmad ibrahim&#45;&#45;pie jwest</title>
<path fill="none" stroke="black" d="M411.52,-140.95C412.18,-126.48 412.36,-105.24 409.35,-87 406.4,-69.13 399.66,-49.52 394.41,-35.98"/>
<text text-anchor="middle" x="419.35" y="-101.3" font-family="Times,serif" font-size="14.00">10</text>
</g>
<!-- buona vista&#45;&#45;clementi rd -->
<g id="edge8" class="edge">
<title>buona vista&#45;&#45;clementi rd</title>
<path fill="none" stroke="black" d="M60.43,-87.21C68.5,-72.31 80.22,-50.65 88.28,-35.76"/>
<text text-anchor="middle" x="80.85" y="-57.8" font-family="Times,serif" font-size="14.00">3</text>
</g>
<!-- pie jeast&#45;&#45;pie jwest -->
<g id="edge5" class="edge">
<title>pie jeast&#45;&#45;pie jwest</title>
<path fill="none" stroke="black" d="M283.55,-89.58C306.4,-74.05 342.57,-49.45 365.62,-33.78"/>
<text text-anchor="middle" x="335.85" y="-57.8" font-family="Times,serif" font-size="14.00">3</text>
</g>
<!-- pie imm -->
<g id="node10" class="node">
<title>pie imm</title>
<ellipse fill="none" stroke="black" cx="321.35" cy="-213" rx="40.89" ry="18"/>
<text text-anchor="middle" x="321.35" y="-209.3" font-family="Times,serif" font-size="14.00">pie imm</text>
</g>
<!-- pie imm&#45;&#45;toh tuck -->
<g id="edge11" class="edge">
<title>pie imm&#45;&#45;toh tuck</title>
<path fill="none" stroke="black" d="M318.64,-194.84C317.06,-179.94 316.68,-158.12 324.35,-141 327.84,-133.2 333.93,-126.25 340.12,-120.63"/>
<text text-anchor="middle" x="327.85" y="-155.3" font-family="Times,serif" font-size="14.00">1</text>
</g>
<!-- pie imm&#45;&#45;pie jeast -->
<g id="edge10" class="edge">
<title>pie imm&#45;&#45;pie jeast</title>
<path fill="none" stroke="black" d="M312.13,-195.44C301.11,-175.64 282.77,-142.7 271.69,-122.8"/>
<text text-anchor="middle" x="304.85" y="-155.3" font-family="Times,serif" font-size="14.00">3</text>
</g>
<!-- corporation -->
<g id="node11" class="node">
<title>corporation</title>
<ellipse fill="none" stroke="black" cx="321.35" cy="-300" rx="51.19" ry="18"/>
<text text-anchor="middle" x="321.35" y="-296.3" font-family="Times,serif" font-size="14.00">corporation</text>
</g>
<!-- corporation&#45;&#45;teban -->
<g id="edge2" class="edge">
<title>corporation&#45;&#45;teban</title>
<path fill="none" stroke="black" d="M304.19,-282.61C287.82,-266.98 263.4,-243.66 247.67,-228.64"/>
<text text-anchor="middle" x="285.85" y="-252.8" font-family="Times,serif" font-size="14.00">3</text>
</g>
<!-- corporation&#45;&#45;jln ahmad ibrahim -->
<g id="edge1" class="edge">
<title>corporation&#45;&#45;jln ahmad ibrahim</title>
<path fill="none" stroke="black" d="M334.52,-282.39C344.99,-268.88 359.75,-249.16 371.35,-231 382.77,-213.1 394.29,-191.61 401.81,-177"/>
<text text-anchor="middle" x="362.85" y="-252.8" font-family="Times,serif" font-size="14.00">4</text>
</g>
<!-- clementi&#45;&#45;clementi rd -->
<g id="edge7" class="edge">
<title>clementi&#45;&#45;clementi rd</title>
<path fill="none" stroke="black" d="M149.81,-87.61C138.38,-72.66 121.55,-50.66 110.06,-35.63"/>
<text text-anchor="middle" x="137.85" y="-57.8" font-family="Times,serif" font-size="14.00">2</text>
</g>
</g>
</svg>