<?xml version="1.0" encoding="UTF-8" standalone="no"?>
<!DOCTYPE svg PUBLIC "-//W3C//DTD SVG 1.1//EN"
 "http://www.w3.org/Graphics/SVG/1.1/DTD/svg11.dtd">
<!-- Generated by graphviz version 2.44.1 (20200629.0846)
 -->
<!-- Pages: 1 -->
<svg width="370pt" height="392pt"
 viewBox="0.00 0.00 370.00 392.00" xmlns="http://www.w3.org/2000/svg" xmlns:xlink="http://www.w3.org/1999/xlink">
<g id="graph0" class="graph" transform="scale(1 1) rotate(0) translate(4 388)">
<polygon fill="white" stroke="transparent" points="-4,4 -4,-388 366,-388 366,4 -4,4"/>
<!-- g -->
<g id="node1" class="node">
<title>g</title>
<ellipse fill="none" stroke="red" cx="27" cy="-192" rx="27" ry="18"/>
<text text-anchor="middle" x="27" y="-188.3" font-family="Times,serif" font-size="14.00">g</text>
</g>
<!-- e -->
<g id="node2" class="node">
<title>e</title>
<ellipse fill="none" stroke="red" cx="185" cy="-279" rx="27" ry="18"/>
<text text-anchor="middle" x="185" y="-275.3" font-family="Times,serif" font-size="14.00">e</text>
</g>
<!-- f -->
<g id="node6" class="node">
<title>f</title>
<ellipse fill="none" stroke="red" cx="222" cy="-192" rx="27" ry="18"/>
<text text-anchor="middle" x="222" y="-188.3" font-family="Times,serif" font-size="14.00">f</text>
</g>
<!-- e&#45;&#45;f -->
<g id="edge6" class="edge">
<title>e&#45;&#45;f</title>
<path fill="none" stroke="red" d="M192.13,-261.61C198.64,-246.66 208.22,-224.66 214.76,-209.63"/>
<text text-anchor="middle" x="208.5" y="-231.8" font-family="Times,serif" font-size="14.00">5</text>
</g>
<!-- c -->
<g id="node3" class="node">
<title>c</title>
<ellipse fill="none" stroke="black" cx="159" cy="-105" rx="27" ry="18"/>
<text text-anchor="middle" x="159" y="-101.3" font-family="Times,serif" font-size="14.00">c</text>
</g>
<!-- b -->
<g id="node5" class="node">
<title>b</title>
<ellipse fill="none" stroke="black" cx="206" cy="-18" rx="27" ry="18"/>
<text text-anchor="middle" x="206" y="-14.3" font-family="Times,serif" font-size="14.00">b</text>
</g>
<!-- c&#45;&#45;b -->
<g id="edge2" class="edge">
<title>c&#45;&#45;b</title>
<path fill="none" stroke="black" d="M168.06,-87.61C176.44,-72.46 188.81,-50.09 197.13,-35.05"/>
<text text-anchor="middle" x="189.5" y="-57.8" font-family="Times,serif" font-size="14.00">3</text>
</g>
<!-- h -->
<g id="node4" class="node">
<title>h</title>
<ellipse fill="none" stroke="red" cx="185" cy="-366" rx="27" ry="18"/>
<text text-anchor="middle" x="185" y="-362.3" font-family="Times,serif" font-size="14.00">h</text>
</g>
<!-- h&#45;&#45;g -->
<g id="edge12" class="edge">
<title>h&#45;&#45;g</title>
<path fill="none" stroke="red" d="M158.37,-362.09C122.31,-356.53 59.32,-340.77 32,-297 15.35,-270.32 19.02,-231.86 23.08,-209.96"/>
<text text-anchor="middle" x="35.5" y="-275.3" font-family="Times,serif" font-size="14.00">4</text>
</g>
<!-- h&#45;&#45;e -->
<g id="edge10" class="edge">
<title>h&#45;&#45;e</title>
<path fill="none" stroke="red" d="M185,-347.8C185,-333.05 185,-311.92 185,-297.18"/>
<text text-anchor="middle" x="188.5" y="-318.8" font-family="Times,serif" font-size="14.00">2</text>
</g>
<!-- h&#45;&#45;c -->
<g id="edge8" class="edge">
<title>h&#45;&#45;c</title>
<path fill="none" stroke="black" d="M173.9,-349.42C165.21,-336.18 153.8,-316.32 149,-297 133.43,-234.32 147.29,-156.63 154.85,-122.92"/>
<text text-anchor="middle" x="146.5" y="-231.8" font-family="Times,serif" font-size="14.00">5</text>
</g>
<!-- h&#45;&#45;b -->
<g id="edge14" class="edge">
<title>h&#45;&#45;b</title>
<path fill="none" stroke="black" d="M211.94,-363.57C259.87,-359.41 355,-343.19 355,-280 355,-280 355,-280 355,-104 355,-48.31 275.5,-28.62 232.64,-22.06"/>
<text text-anchor="middle" x="358.5" y="-188.3" font-family="Times,serif" font-size="14.00">5</text>
</g>
<!-- h&#45;&#45;f -->
<g id="edge13" class="edge">
<title>h&#45;&#45;f</title>
<path fill="none" stroke="black" d="M196.05,-349.4C204.72,-336.16 216.11,-316.29 221,-297 228.54,-267.25 226.51,-231.15 224.29,-210.25"/>
<text text-anchor="middle" x="228.5" y="-275.3" font-family="Times,serif" font-size="14.00">8</text>
</g>
<!-- a -->
<g id="node7" class="node">
<title>a</title>
<ellipse fill="none" stroke="black" cx="75" cy="-279" rx="27" ry="18"/>
<text text-anchor="middle" x="75" y="-275.3" font-family="Times,serif" font-size="14.00">a</text>
</g>
<!-- h&#45;&#45;a -->
<g id="edge9" class="edge">
<title>h&#45;&#45;a</title>
<path fill="none" stroke="black" d="M160.85,-357.68C144.89,-351.98 124.19,-342.86 109,-330 98.1,-320.77 89.19,-307.24 83.23,-296.58"/>
<text text-anchor="middle" x="112.5" y="-318.8" font-family="Times,serif" font-size="14.00">8</text>
</g>
<!-- d -->
<g id="node8" class="node">
<title>d</title>
<ellipse fill="none" stroke="black" cx="300" cy="-279" rx="27" ry="18"/>
<text text-anchor="middle" x="300" y="-275.3" font-family="Times,serif" font-size="14.00">d</text>
</g>
<!-- h&#45;&#45;d -->
<g id="edge11" class="edge">
<title>h&#45;&#45;d</title>
<path fill="none" stroke="black" d="M208.9,-357.61C225.03,-351.83 246.16,-342.64 262,-330 273.76,-320.61 283.88,-306.82 290.72,-296.09"/>
<text text-anchor="middle" x="279.5" y="-318.8" font-family="Times,serif" font-size="14.00">4</text>
</g>
<!-- f&#45;&#45;c -->
<g id="edge3" class="edge">
<title>f&#45;&#45;c</title>
<path fill="none" stroke="black" d="M210.44,-175.41C199.08,-160.07 181.82,-136.79 170.48,-121.49"/>
<text text-anchor="middle" x="198.5" y="-144.8" font-family="Times,serif" font-size="14.00">2</text>
</g>
<!-- f&#45;&#45;b -->
<g id="edge5" class="edge">
<title>f&#45;&#45;b</title>
<path fill="none" stroke="black" d="M220.41,-173.88C217.34,-140.91 210.65,-68.97 207.59,-36.05"/>
<text text-anchor="middle" x="218.5" y="-101.3" font-family="Times,serif" font-size="14.00">3</text>
</g>
<!-- a&#45;&#45;g -->
<g id="edge7" class="edge">
<title>a&#45;&#45;g</title>
<path fill="none" stroke="black" d="M65.97,-262.01C57.44,-246.91 44.72,-224.38 36.15,-209.21"/>
<text text-anchor="middle" x="57.5" y="-231.8" font-family="Times,serif" font-size="14.00">7</text>
</g>
<!-- a&#45;&#45;b -->
<g id="edge1" class="edge">
<title>a&#45;&#45;b</title>
<path fill="none" stroke="black" d="M75.76,-260.77C78.04,-225.49 87.1,-143.59 123,-87 138.77,-62.15 166.69,-42.07 185.75,-30.34"/>
<text text-anchor="middle" x="101.5" y="-144.8" font-family="Times,serif" font-size="14.00">1</text>
</g>
<!-- d&#45;&#45;f -->
<g id="edge4" class="edge">
<title>d&#45;&#45;f</title>
<path fill="none" stroke="black" d="M289.13,-262.03C281.91,-251.88 271.97,-238.68 262,-228 254.82,-220.31 246.11,-212.53 238.64,-206.26"/>
<text text-anchor="middle" x="277.5" y="-231.8" font-family="Times,serif" font-size="14.00">3</text>
</g>
</g>
</svg>